<?xml version="1.0" encoding="UTF-8" standalone="no"?>
<!-- Created with Inkscape (http://www.inkscape.org/) -->

<svg
   xmlns:dc="http://purl.org/dc/elements/1.1/"
   xmlns:cc="http://creativecommons.org/ns#"
   xmlns:rdf="http://www.w3.org/1999/02/22-rdf-syntax-ns#"
   xmlns:svg="http://www.w3.org/2000/svg"
   xmlns="http://www.w3.org/2000/svg"
   xmlns:sodipodi="http://sodipodi.sourceforge.net/DTD/sodipodi-0.dtd"
   xmlns:inkscape="http://www.inkscape.org/namespaces/inkscape"
   width="210mm"
   height="297mm"
   id="svg2"
   version="1.1"
   inkscape:version="0.48.4 r9939"
   sodipodi:docname="Nuevo documento 1">
  <defs
     id="defs4" />
  <sodipodi:namedview
     id="base"
     pagecolor="#ffffff"
     bordercolor="#666666"
     borderopacity="1.0"
     inkscape:pageopacity="0.0"
     inkscape:pageshadow="2"
     inkscape:zoom="0.79061948"
     inkscape:cx="427.49401"
     inkscape:cy="852.82313"
     inkscape:document-units="px"
     inkscape:current-layer="layer1"
     showgrid="false"
     inkscape:window-width="1280"
     inkscape:window-height="751"
     inkscape:window-x="0"
     inkscape:window-y="25"
     inkscape:window-maximized="1" />
  <metadata
     id="metadata7">
    <rdf:RDF>
      <cc:Work
         rdf:about="">
        <dc:format>image/svg+xml</dc:format>
        <dc:type
           rdf:resource="http://purl.org/dc/dcmitype/StillImage" />
        <dc:title></dc:title>
      </cc:Work>
    </rdf:RDF>
  </metadata>
  <g
     inkscape:label="Capa 1"
     inkscape:groupmode="layer"
     id="layer1">
    <path
       style="fill:#000000"
       d="m 367.88183,429.74792 c 14.09342,-10.33998 40.46548,5.02923 52.29974,-16.34245 17.72154,-25.66326 -17.08984,20.36742 -32.29252,10.92596 -18.42026,-4.12035 -36.365,7.28362 -52.44806,-8.4032 -23.89393,-5.91711 -48.89644,-5.43527 -72.64083,-12.47309 -31.02104,-6.79901 -64.18174,-9.16185 -91.22795,-27.41214 -14.01393,-6.67225 -39.57288,-23.4776 -45.65257,-25.42173 20.2067,17.49136 45.14928,29.10125 69.51348,39.62504 29.84796,10.2087 61.60889,12.88147 91.99059,20.77923 22.13393,2.33931 44.76062,5.19722 64.43307,16.17322 5.15202,1.71445 10.58334,2.69106 16.02505,2.54916 z m -4.44313,-0.68263 c 3.20443,-4.29118 2.44973,1.94902 0,0 z m 45.2776,-9.8231 c 4.09607,-3.99018 -0.0397,3.00422 0,0 z M 269.92141,406.54753 c 0.58496,-3.53643 5.22421,4.60675 0,0 z m 95.51677,8.40339 c 3.82218,-21.72129 -44.62423,-4.92882 -12.30044,1.49163 4.10138,0.63607 8.57763,0.645 12.30044,-1.49163 z m -1.40626,-1.42133 c -13.45869,8.3836 -31.41055,-12.5065 -7.50997,-7.4556 1.77279,0.62105 11.38616,5.89668 7.50997,7.4556 z m 90.38516,-5.39489 c 26.72932,-7.55991 42.02369,-34.63985 50.55899,-59.20085 4.09359,-23.69835 10.5191,-51.19107 -5.63287,-72.18194 -15.45618,-15.68445 15.02485,20.52873 7.98165,32.39564 1.9627,36.37031 -14.27523,76.1268 -46.79622,94.67938 -11.277,8.26251 -27.51904,-3.26916 -29.85886,-7.10381 -6.66189,9.56293 17.90713,11.34977 23.74731,11.41158 z m 7.40521,-3.01686 c 7.73008,-6.88445 -0.95484,2.8953 0,0 z m -28.56299,-0.26295 c 1.36826,-3.67005 4.15746,4.27915 0,0 z m 5.92418,2.53894 c -2.67142,-3.68717 -1.30232,3.49494 0,0 z m -140.62857,-9.02731 c 9.00261,-5.60432 -9.86538,-17.06836 2.2742,-15.11274 -10.1797,-2.89081 -47.73551,-13.52572 -25.73419,4.89242 -6.84706,0.34734 -35.38167,-14.91029 -14.80156,-11.90092 -17.29428,-5.63797 -40.563,-5.08546 -43.24761,-5.85024 -6.72643,-6.66786 -27.62042,-12.75182 -11.88473,0.9413 7.5921,7.04818 15.19394,15.7099 2.25016,4.19328 -15.76777,-18.89518 -38.9487,-25.75549 -60.21967,-35.92626 -24.07892,-13.0708 -51.029483,-23.65228 -69.813301,-44.17812 -8.900741,-12.59851 -4.565095,-16.49298 6.41072,-5.6143 30.232211,19.99217 62.802281,36.50324 95.698981,51.46957 65.80549,16.59761 133.24751,27.51875 201.03532,31.49135 30.92622,8.11692 46.18249,-30.38729 29.31047,-52.56303 -15.28162,-14.68827 8.96011,-24.55203 11.32165,-4.08784 13.53856,20.02792 18.59628,50.78364 -3.13371,67.20606 -7.04829,12.06079 -46.372,8.5819 -17.12813,10.97727 15.34754,3.25353 29.6262,-26.25056 37.10797,-17.01376 -16.63767,20.59017 28.3026,22.61379 24.65974,13.22426 -12.43084,6.76667 -27.67922,-1.61971 -7.38213,-7.97834 24.69226,-15.06932 34.05237,-49.53945 30.6732,-77.08979 -5.37691,-8.28764 -12.99112,-31.46962 4.56472,-17.39714 -2.72168,3.28938 -14.54224,-20.86935 2.03251,-24.48217 16.25292,-13.93935 9.98812,32.95459 20.69615,8.72683 17.22833,-14.41994 10.86321,-33.49952 14.64739,-54.21087 2.46266,-13.46302 -6.16674,-39.9451 -10.50881,-43.15874 12.88108,28.63147 7.56008,61.85794 -0.61882,90.57022 -12.87249,25.19325 -7.18685,-21.36122 -26.09103,-5.20156 -21.79698,21.42064 -24.97624,53.76767 -36.68416,80.76826 -2.03446,10.8668 -14.54945,42.58744 -19.39296,15.74003 2.28227,-22.1068 -13.84658,-38.5176 -18.00589,-58.64345 6.8313,-19.24302 25.80247,-32.40605 37.29825,-49.44886 10.1997,-12.95489 30.60226,-36.00862 33.85391,-43.05503 -22.17811,22.17461 -40.12511,48.27404 -60.88185,71.79421 -8.94206,7.67203 -19.54595,31.34772 -28.9203,28.22193 7.86888,-18.2266 26.50189,-30.23409 37.65937,-46.93978 14.44587,-17.38091 27.92572,-35.53216 42.08989,-53.13874 -21.21802,18.80614 -34.49119,44.77425 -55.50072,63.78193 -5.75575,18.16798 -36.65694,44.94819 -47.81296,21.38494 12.38222,-17.07362 26.6773,-32.82842 38.22446,-50.62525 -15.06036,17.51198 -31.13637,34.93102 -41.12273,55.9865 10.44801,-2.64822 33.3121,14.53143 9.62475,9.65095 -59.51072,-8.31029 -119.63338,-14.55192 -177.48735,-31.51303 -38.21059,-8.05926 -74.79148,-22.4611 -110.034289,-38.75869 -5.326492,-12.06249 24.754089,-0.49765 27.263359,-17.21098 7.63017,-7.04595 37.80417,-26.61887 12.73302,-12.37951 -11.45246,6.27446 -28.31689,32.94472 -39.106695,18.62641 21.783225,-27.19588 55.908265,-40.71197 86.516895,-55.74178 12.31479,-6.4977 42.2967,-18.45593 43.95761,-23.70698 -36.60349,18.2259 -75.0847,33.44269 -109.00732,56.75007 -17.06749,2.61652 -21.341484,39.33532 -41.087708,24.98427 20.442092,-20.67256 44.985628,-36.13052 71.249108,-48.34618 29.14081,-14.85069 58.94912,-28.36394 89.12253,-40.97425 -10.24585,11.2932 15.89197,-5.08429 14.40767,-11.95974 14.14548,-15.24318 29.9503,-28.9534 42.94097,-45.255199 -3.6371,10.898916 18.91316,-21.167373 30.3252,-11.307449 56.98491,2.397601 113.48447,11.287959 170.09391,16.812982 26.67126,9.535983 11.06804,49.586676 12.70145,71.921476 -4.85768,19.65325 -37.29332,6.12305 -54.13627,7.8939 -33.9496,-3.29508 -67.7668,-7.43131 -101.48904,-12.38333 -12.94973,0.0127 20.61421,4.85118 26.95249,6.03421 43.21376,4.72771 86.45531,11.7091 130.06502,10.90109 9.63636,-4.65224 25.24602,-15.22173 29.9158,-9.37676 1.04592,-9.88219 39.81718,-10.15543 15.15217,-7.76465 -12.12569,5.16243 -20.25152,-18.56128 -21.30004,-0.69232 -20.88651,12.26339 -4.28676,-26.24823 -10.13211,-37.18628 -9.43732,-22.708845 23.17858,-57.365998 28.62174,-19.504001 2.38002,13.779711 16.46522,27.383991 1.26524,39.171841 18.71229,-27.52818 26.85547,22.45368 22.4656,36.70948 -2.06913,7.24575 -12.68263,25.85091 -3.00117,9.55342 4.49012,9.774 16.79867,-47.40276 5.42502,-18.62525 6.14292,-19.65672 -19.07372,-34.22679 -10.41495,-53.26617 9.4046,-25.676868 -26.2941,-53.509545 -42.18247,-24.616992 -8.02506,22.136062 -1.06951,46.541462 -4.4385,69.577612 -0.52532,17.17338 -17.9269,11.67903 -9.87255,-3.51249 -1.67602,-23.21702 12.99364,-66.489684 -21.85961,-68.107676 -57.49447,-4.443199 -114.54907,-15.170029 -172.37556,-16.179343 21.586,-14.011571 -26.4912,9.219703 -28.4971,20.207447 -7.27629,18.922712 -31.79605,6.773335 -31.09397,29.812922 -17.95473,24.14204 -49.67328,30.33868 -75.05795,43.864 -31.06219,14.97075 -63.88938,28.45012 -90.460654,50.79753 -7.789388,8.39592 -18.816113,13.87672 -18.768705,23.45842 26.477143,-1.86997 55.288069,21.92637 82.595139,30.00225 33.83462,9.58589 67.68914,19.96169 102.17852,26.6176 47.36005,6.3242 94.38224,14.97876 141.809,20.82754 23.49612,10.23628 25.0812,52.98141 -2.86557,58.31152 -24.19814,1.17141 -48.52841,-3.02904 -72.7442,-4.71209 C 272.65275,357.94189 223.21919,351.70021 176.0381,336.68366 146.3745,322.80605 118.57942,304.91135 88.654738,291.4324 72.334544,288.21523 66.581872,253.93077 66.575973,256.00854 c -4.636007,28.57133 14.553495,53.76249 33.236996,72.92778 25.221171,27.35338 -32.418977,-34.07051 -5.915485,-16.57369 25.021456,8.51508 36.887186,35.94161 61.882936,44.85869 13.7327,6.30634 43.60805,26.03162 48.48641,20.77258 -9.28732,-14.47579 19.28471,17.32002 29.37519,11.34538 15.69625,-0.64233 50.36906,15.16293 55.59157,5.64144 -13.87561,-5.91699 -11.79172,-9.30642 1.66816,-4.33599 13.36505,-8.44046 0.81657,10.2547 7.65316,7.72179 z m 155.28032,-3.39915 c 4.59607,-1.76141 -0.38183,1.93939 0,0 z m -176.09766,0.0722 c 2.01277,-6.66675 7.58439,5.20674 0,0 z m -10.24025,-1.61509 c -12.67282,-0.81375 -29.95384,-16.11907 -33.30445,-19.29309 15.48081,-6.02809 16.8547,17.55574 27.51326,13.50342 -6.06697,-7.84921 24.83095,12.68124 5.79119,5.78967 z m -18.96571,-3.80636 c -15.02403,-6.61443 -4.11863,-5.99996 3.61716,0.62634 l -3.61716,-0.62634 z m -13.95515,-2.74638 c -14.90994,-9.92362 -2.33778,-8.53861 4.07042,0.36103 l -1.56472,0.87088 -2.5057,-1.23191 z m 203.1208,-3.75946 c 15.9776,-27.30419 23.70249,-58.25241 33.51976,-88.0233 -6.11109,16.31617 8.8537,-15.39862 10.36761,4.05451 5.57407,27.55167 -5.24319,56.18925 -21.62788,77.90346 -1.43106,2.609 -27.74557,12.81287 -22.25949,6.06533 z m -165.44833,-1.5309 c -7.20649,-10.10917 33.44503,8.1273 6.04287,3.0339 -2.11294,-0.80866 -4.04008,-1.99699 -6.04287,-3.0339 z m -47.53376,1.9042 c 1.07607,-6.37918 5.21682,7.13585 0,0 z m -9.25375,-4.44314 c -10.2901,-14.63286 15.23524,12.40916 3.30282,2.893 l -3.30282,-2.893 z m -0.12716,-6.15454 c 6.25435,2.47596 4.32096,7.10344 0,0 z m -18.01781,3.94745 c -10.39178,-4.50843 -16.96019,-20.47601 -3.36419,-5.95023 1.60536,1.6658 13.75136,11.92713 3.36419,5.95023 z m -11.97111,-5.81191 c -9.54238,-7.68343 -19.66936,-27.49006 -4.43229,-9.06263 0.21553,1.34505 10.25144,11.44883 4.43229,9.06263 z m 20.89754,-4.75261 c 5.39689,-0.43784 3.51175,8.40722 0,0 z m -30.33072,0.70985 c -8.64548,-6.19083 -11.41201,-23.26857 -2.06332,-6.51724 1.10233,1.69906 11.35252,12.47713 2.06332,6.51724 z m 6.51019,-6.61527 c 4.77852,-5.76156 15.88151,15.08607 2.08069,0.91069 l -1.20772,-0.52861 -0.87297,-0.38208 z m 226.61199,0.25568 c 2.98955,-1.70009 -3.40422,4.70985 0,0 z m -242.63986,0.43727 c -8.24937,-9.1681 9.93618,4.32121 0,0 z m -6.44412,-3.07662 c -9.0149,-2.33068 -37.84974,-25.98884 -15.06811,-11.49829 5.49898,3.08174 11.59042,5.95072 15.06811,11.49829 z m -2.05333,-8.66073 c -9.6385,-12.14607 13.4879,10.10512 0,0 z m -8.87052,-6.45322 c 4.96509,-0.42066 2.00395,10.22995 0,0 z m -6.47494,-1.95925 c 2.42926,-1.69889 1.16793,3.26989 0,0 z m 339.06442,-3.3353 c 0.82509,-4.51698 1.88241,4.62959 0,0 z m -346.25207,-2.9524 c 1.44471,-2.09775 2.83278,3.96466 0,0 z m 347.71768,-5.72228 c 0.40808,-22.99712 5.69299,-1.96923 0,0 z m -5.91438,-48.16486 c 4.93039,-4.84426 -5.00263,9.10645 0,0 z m 44.81722,-30.96517 c 1.7513,1.3998 -2.10067,4.07578 0,0 z m 2.51604,-18.19567 c 1.66053,1.79469 -2.09261,5.97178 0,0 z M 109.96874,196.66255 c 2.67141,-3.68721 1.30235,3.49492 0,0 z m 422.73205,-36.26217 c 1.01875,-18.49199 14.38152,1.3973 0,0 z m 23.70964,-49.41685 c -3.45097,-10.49918 -24.5419,-49.720397 1.12644,-29.956368 4.33776,6.911524 11.69676,29.170288 -1.12644,29.956368 z m -299.08437,-1.38121 c 0.0235,-15.445806 23.03193,-3.23335 2.72302,1.35979 l -1.53878,-0.2674 -1.18424,-1.09239 z m 47.29408,-39.886332 c 2.67136,-3.687203 1.30237,3.494921 0,0 z m 81.66895,323.306692 c -27.24541,-6.37876 -55.3521,-6.79121 -83.12342,-8.9442 27.1458,5.72508 56.44754,5.7836 83.12342,8.9442 z m 83.51544,-5.42136 c 20.84446,-12.11981 27.27022,-38.28151 31.37275,-60.36337 4.22713,-12.68456 -11.94121,-50.55159 -2.93911,-19.5518 3.92763,29.49566 -7.07319,59.88024 -28.46013,79.31572 l -1.04646,1.45842 1.07295,-0.85897 z m 12.71623,-14.05038 c 3.49006,-5.2608 -0.69044,5.7682 0,0 z m -221.48561,6.06821 c -2.94407,-6.93044 -2.67793,1.88784 0,0 z m -65.78651,-18.87741 c -4.54881,-3.15827 1.4084,2.6561 0,0 z m 216.42976,-4.12653 c 1.84511,-5.97164 -3.97581,6.42511 0,0 z m -13.96412,-3.52028 C 426.7477,330.30735 381.7675,307.14783 359.44161,311.80257 302.65145,306.24947 246.66375,294.604 190.86887,283.09851 152.22171,272.3603 116.3039,253.86133 78.910711,239.97555 c -18.660468,13.12758 14.077463,39.74227 30.059549,43.17456 36.78821,19.18722 74.47845,39.27165 115.62219,46.90936 50.4866,6.12402 100.43023,16.61912 150.85031,23.18384 7.39724,0.68419 14.90248,1.00575 22.27152,-0.14831 z m -22.85039,-3.61439 c -8.43385,-1.44505 -41.59864,-3.08804 -34.50987,-7.62724 11.24605,3.87287 20.81678,-24.34655 26.51842,-4.89598 -16.90747,4.9645 4.85105,5.77335 10.48918,10.30145 3.27683,-3.38339 26.24189,2.68952 8.24833,3.04479 -3.54106,-0.66874 -7.16384,-0.57397 -10.74606,-0.82302 z m 21.15308,-1.33601 c 1.24276,-12.84732 12.22781,-2.446 0,0 z m -15.94293,-6.97447 c -33.28875,-14.21365 11.82528,-38.37437 21.69066,-11.30556 0.31049,10.36506 -13.35896,17.43594 -21.69066,11.30556 z m -69.10657,-0.88536 c 4.08298,-7.73523 20.19114,3.48079 0,0 z m -21.7925,-4.20019 c -9.08727,0.22729 -25.45746,-14.47078 -6.90775,-6.17065 8.91431,-1.33692 33.1596,13.37727 6.90775,6.17065 z m 41.68079,-0.82871 c -15.35739,-5.99174 -10.85458,-35.36487 7.26521,-22.09424 31.00276,-6.33708 19.12743,36.01363 -7.26521,22.09424 z m -19.27024,-2.33727 c -3.22235,-8.27715 11.04266,6.99186 0,0 z m -57.49962,-0.47848 c -11.46247,2.78763 -24.61908,-19.07701 -7.21656,-5.13032 10.48164,1.74355 36.90338,6.77268 11.50957,5.16391 -1.43101,-0.0118 -2.862,-0.0235 -4.29301,-0.0336 z m 46.47223,-0.0811 c -5.25308,-7.58964 9.93202,4.9017 0,0 z m 18.04494,-6.84564 c 6.33276,1.12661 0.19109,7.63247 0,0 z m -3.28707,3.49887 c -5.78572,-7.09512 6.32034,0.29242 2.99331,1.37869 l -2.99331,-1.37869 z m -82.83304,-1.15568 c -9.33129,0.11141 -12.83329,-6.87124 -10.58642,-7.45899 -28.20701,-15.11405 32.8123,9.88486 10.58642,7.45899 z m 68.55748,-1.21595 c -40.69032,-7.49001 -83.43101,-8.24384 -121.12663,-27.25826 -11.31301,-8.93955 -48.14986,-13.43951 -39.17409,-29.66806 0.31961,9.13409 29.58978,28.73917 40.87919,20.01676 -7.50377,-9.30285 -36.15885,-17.07019 -8.65482,-9.11755 42.00595,13.62675 86.02805,20.07348 129.57221,26.90608 17.78221,-5.99256 12.1031,27.77869 -1.49586,19.12103 z m 5.09777,-6.22379 c -8.60414,-19.70001 -40.54892,-9.69382 -58.21231,-17.45026 -19.25849,-0.90235 -44.54225,-12.7253 -59.69778,-8.93235 13.40099,16.6819 42.60458,13.0963 62.39781,19.98439 18.22921,2.30467 37.62701,7.87826 55.51228,6.39822 z m -20.13691,-3.68798 c -31.16493,-5.10567 -63.63585,-8.18922 -92.62845,-20.96939 29.31019,5.67757 58.84061,10.77875 88.42241,15.28445 11.33014,0.0771 33.25918,10.14804 8.71186,6.02633 l -4.50582,-0.34139 z m -25.81247,9.41922 c 2.04248,-3.32353 2.04236,3.32355 0,0 z m -48.15981,-2.26222 c -4.53745,-6.52018 -15.05242,-11.4397 -4.40632,-0.52607 -9.62601,-5.0148 -28.08287,-22.37824 -6.07955,-11.74006 2.82761,1.19016 25.78071,17.07212 10.48587,12.26613 z m 104.86261,-2.49237 c 2.26175,-3.68072 1.19564,6.74378 0,0 z m -120.38765,-0.65506 c -6.49826,-9.24781 9.03217,5.26314 0,0 z m 163.27489,-2.81871 c 5.77463,-8.73524 10.35281,6.49743 0,0 z m -175.38463,-3.1699 c -22.64228,-9.81908 -49.00529,-14.68688 -67.11268,-32.37279 2.80124,-2.53985 21.66128,-17.03169 17.67256,-1.04749 -15.81673,2.52807 17.53862,4.52142 22.79206,11.6497 4.47326,3.55655 41.34277,18.35172 26.64806,21.77058 z m -18.99216,-10.55587 c -1.56627,-3.26161 -1.76627,1.95257 0,0 z m -5.07786,-6.77047 c -1.09758,-4.85227 -2.60545,3.00373 0,0 z m 155.72112,13.01791 c 1.75504,-3.21696 1.62217,4.70807 0,0 z M 162.36213,285.26309 c -13.2679,-3.65728 -26.41319,-14.58788 -4.77731,-6.17866 9.94412,1.98708 29.23187,17.14181 7.70407,7.51429 -0.9756,-0.44519 -1.95116,-0.89041 -2.92676,-1.33563 z m -49.466,-3.17195 c -5.40112,-9.64655 8.73419,10.02994 0,0 z m -5.93151,-2.08877 c -11.454132,-5.48639 -7.443292,-27.14112 -0.6824,-7.69084 -15.435168,-8.98996 10.05308,11.45721 0.6824,7.69084 z m -9.082738,-5.34854 c 2.649538,-3.11524 5.362338,7.56128 0,0 z m 14.149878,-1.01463 c -13.984902,-10.09528 -7.35585,-28.1035 7.53686,-14.72879 19.35203,4.42343 7.27351,22.16852 -7.53686,14.72879 z m 35.97114,-0.35868 c -3.53867,-4.70636 11.42644,5.94024 0,0 z m -57.196816,-1.78193 c -7.269802,-6.15962 10.447366,5.08219 0,0 z m 2.236455,-4.59231 c 2.581921,-4.88405 6.217328,1.75281 0,0 z m -5.077864,-0.8463 c 1.368114,-3.67007 4.157554,4.2791 0,0 z m -5.501034,-1.74258 c 1.766299,-1.95257 1.566278,3.26169 0,0 z m 0.987555,-4.19909 c -18.310583,-11.74236 2.769744,-24.59191 11.803801,-9.27304 2.587867,9.4611 -2.634642,15.58305 -11.803801,9.27304 z m 15.092354,-8.44562 c 2.13271,-3.17987 2.62482,3.74512 0,0 z m 23.35517,96.61148 c -6.72491,-12.0112 -19.14732,-0.0576 0,0 z m 319.9485,-11.6011 c 12.49405,-1.4658 24.49235,-33.97952 4.71973,-17.36985 -3.45632,0.27608 -14.15516,24.32986 -4.71973,17.36985 z m -1.05926,-3.53535 c 1.71118,1.5275 -1.35432,2.79508 0,0 z m 1.3576,0.32514 c 2.29553,-3.04954 7.35064,-5.66435 0,0 z m -1.69261,-4.25912 c 2.29771,-3.88916 2.96786,-0.36368 0,0 z m 4.24854,-4.35563 c 4.98204,-3.55516 -2.77358,4.13706 0,0 z m 9.81797,-6.78836 c 2.08965,-6.84057 3.30125,6.81956 0,0 z m -336.10004,19.94669 c -2.75115,-17.95743 -22.118342,-3.22525 0,0 z m -6.07613,-3.75645 c -6.85545,-8.34764 10.8452,7.46752 0,0 z m 271.00217,-38.45774 c 1.87381,-19.53725 8.0472,7.98431 17.43923,-7.41671 11.19918,-23.75716 -25.13731,-4.93582 -17.43923,7.41671 z m 5.31119,-4.80677 c 1.80543,-13.11313 24.37146,-19.23381 8.67686,-2.0814 -1.81608,1.80041 -6.41662,5.38653 -8.67686,2.0814 z M 203.12207,263.0979 c 5.72489,-6.49818 25.41318,-30.46732 8.44631,-13.57038 -1.44814,1.75074 -16.02571,19.35965 -8.44631,13.57038 z m 327.29756,-15.24421 c 2.98462,-10.11168 -5.52482,9.39 0,0 z m -462.476884,0.43379 c -0.733662,-3.85192 -0.733709,3.85186 0,0 z M 537.12646,236.22756 c 7.83024,-11.75273 -6.19939,4.3371 0,0 z m -308.4779,-1.48105 c 25.31451,-5.03946 51.17196,-9.91101 76.96593,-8.01221 16.89774,0.098 47.96811,-22.63643 42.58871,-33.60919 -16.05038,15.46271 -34.60233,37.99492 -60.3876,29.48604 -8.29358,0.79945 -45.47305,9.45392 -26.72907,-0.20989 -9.28122,0.10083 -16.67442,11.55585 -16.76421,5.8736 -24.95778,-2.68468 -19.41244,-33.67714 -0.46452,-41.39972 4.9784,-8.97857 40.2165,-24.2737 16.01577,-14.49146 -22.00386,11.61075 -43.68159,34.77085 -29.04931,59.1453 l -0.72172,2.00985 -1.45398,1.20765 0,0 z m 315.73191,-10.79046 c 7.46486,-13.35354 -6.56374,6.6153 0,0 z M 313.7885,219.79501 c -1.88967,-13.70776 -36.44006,3.93948 -12.55539,-3.09159 4.85758,-3.16478 8.35222,1.9141 12.55539,3.09159 z m 252.7647,-0.95157 c 6.88015,-2.30546 -12.60673,-5.53798 -8.81765,-5.23069 -7.86799,12.38742 -3.0286,-10.65646 -9.61811,2.38989 4.65796,5.03925 12.49033,2.29383 18.43576,2.8408 z m -329.21475,-1.70375 c -7.17762,-16.77225 -10.59039,-7.95839 0,0 z m 338.75575,-1.01252 c 6.08601,-9.6945 9.09061,-24.19276 1.30021,-6.52363 -4.31275,-17.23915 -0.0487,0.68623 -4.46238,4.19407 -1.20683,-8.06878 -4.34235,-35.73648 -4.21846,-11.3664 0.52084,4.23638 -1.05882,18.33914 7.38063,13.69596 z m -6.77652,-21.34647 c 1.1971,7.72649 -1.23973,8.26371 0,0 z m -456.01394,19.00899 c 15.59617,-1.56517 5.37259,-13.71359 -0.97561,-0.16335 l -1.04559,2.71803 2.0212,-2.55472 z m 3.65431,-2.33134 c 8.2724,-13.67568 6.37518,1.04698 0,0 z m 451.22094,0.93145 c -0.7078,-4.03667 -0.68879,3.15263 0,0 z m -3.85122,-6.27815 c 0.97435,-20.28189 -2.65182,16.14144 0,0 z m -7.99712,2.04661 c -0.70781,-4.03667 -0.68879,3.15263 0,0 z m 2.4703,-2.77109 c 0.4699,-8.26788 -9.49596,4.70652 -0.74758,-0.50482 0.0762,0.59144 1.2459,6.8215 0.74758,0.50482 z m 1.70364,-2.09651 c 0.70999,-18.36617 -1.42977,8.88467 0,0 z M 328.47738,202.7983 c 17.62019,-19.37108 -5.67348,0.47032 -2.8046,2.33334 l 2.8046,-2.33334 z m 153.02442,-1.24942 c 8.3679,-8.22711 21.42688,-28.74151 5.2585,-9.064 -0.72421,0.85433 -13.66847,17.25155 -5.2585,9.064 z m 85.73272,-1.07795 c -0.75533,-5.35426 -0.44863,4.74043 0,0 z m -71.66343,-2.7505 c 2.49669,-4.12476 -5.43718,5.82718 0,0 z m 67.37658,-2.14674 c -1.28905,-8.11306 -0.21365,8.44408 0,0 z m 13.15151,0.80806 c 4.25284,-11.00494 -3.4517,2.43523 0,0 z m -11.37224,-1.41184 c -0.73368,-3.85188 -0.73368,3.85188 0,0 z m -65.45541,-0.84629 c -0.31171,-2.91093 -2.32445,3.24918 0,0 z m 2.23392,-3.17367 c 10.41258,-12.19723 -5.7554,4.39183 0,0 z m 84.36399,-3.32684 c 4.54173,-21.9786 -4.16519,10.663 0,0 l 0,0 z m -9.4314,-1.11629 c -0.62286,-9.7933 -0.62286,9.7933 0,0 z m -309.31544,1.9042 c 7.16403,-8.81206 -7.48304,5.31571 0,0 z m 30.30389,-1.73767 c -8.94746,-3.90455 -14.17164,-1.46923 0,0 z m 279.99511,-8.62964 c -0.73368,-3.85187 -0.73368,3.85188 0,0 z m 10.44006,-4.65471 c 0.44292,-10.03824 -1.83453,7.36508 0,0 z m -10.44006,0.42316 c -0.73368,-3.85188 -0.73368,3.85187 0,0 z m -213.73895,-5.73712 c -6.16745,-0.98871 -8.41448,-2.05821 -1.10009,-5.21125 -19.58045,0.36569 -43.53791,-12.9999 -60.13266,-3.5514 18.19431,7.73604 40.97481,9.9319 61.23275,8.76265 l 0,0 z m -12.38083,-2.72598 c 9.87368,-9.67072 -0.42214,8.67845 0,0 z m -17.07301,-0.2879 c -10.97514,-4.69535 15.35445,-7.52167 5.12231,0.2879 6.47764,-6.42665 18.1834,3.27636 2.52302,1.0632 l -2.87326,-0.71338 -4.77207,-0.63772 0,0 z m 2.54643,-2.24585 c 2.98511,-5.29731 -6.10919,5.11558 0,0 z m -17.2806,0.89157 c 6.96615,-8.31176 -13.24838,5.28222 -4.92248,-4.54463 -15.92467,5.99481 -7.78161,-6.81058 7.29895,-1.63023 14.00396,3.83608 7.59766,7.76252 -2.37647,6.17486 z m 6.50283,-1.73158 c 3.32945,-7.38633 -6.37547,6.46301 0,0 z m 262.3948,5.48953 c -0.75531,-5.35425 -0.44858,4.74043 0,0 z m -227.06933,-1.26946 c 2.90235,-6.29723 -7.29747,7.27999 0,0 z m 226.94419,-8.88626 c -0.77559,-11.21159 -0.41713,13.02887 0,0 z m -289.35958,4.07132 c 3.40478,-10.22066 -6.88121,2.80473 0,0 z m 280.46472,-10.19797 c 4.44113,-27.40995 -12.29995,1.44164 0,0 z m -3.19961,-5.87197 c -0.0491,-15.76632 5.20382,15.06478 0,0 z m -234.73803,6.41735 c -13.88936,-3.39978 -14.45755,1.80281 0,0 z m 246.94161,-4.30456 c -4.91566,-18.99557 -6.90567,6.0817 0,0 z m -263.86781,1.83296 c -10.81709,-4.53527 -36.85262,-4.71103 -11.31052,-0.76657 1.28768,-0.10356 14.71137,2.75136 11.31052,0.76657 z m 240.98207,-4.70612 c -6.35821,-10.24318 -10.06613,-9.48267 -1.68297,0.14876 -1.26989,1.96892 4.58211,6.24697 1.68297,-0.14876 z m -269.81632,-0.26938 c -12.85743,-2.71286 -39.75368,-9.95099 -43.77968,-7.56432 14.36262,3.55715 28.90143,7.30023 43.77968,7.56432 z M 588.224,136.2193 c 14.34445,-14.95093 16.72755,-59.088547 -11.49316,-49.109445 -8.99469,-7.804252 16.07332,-3.887575 -2.55616,-5.628416 -11.13111,1.992995 -20.16879,-24.81172 -23.67906,-20.186417 10.28211,13.944635 23.26298,33.41593 40.18148,29.000262 16.76226,10.845246 -7.34596,49.975496 -2.4531,45.924016 l 0,0 z m -51.58081,3.59234 c 10.50197,-2.82019 10.24563,-10.85218 0,0 z m 25.13281,-8.65281 c 3.72134,-15.09018 -10.87735,11.58484 0,0 z m -2.04618,-1.30192 c 6.17255,-4.37833 -6.32075,8.6872 0,0 z m 31.31037,-29.75504 c 3.92131,-11.141766 -8.64445,11.9953 0,0 z m -6.43237,-0.48292 c 3.53961,-14.257552 -12.89235,3.29763 0,0 z m -3.06625,-2.82103 c 3.95986,-5.679329 1.18742,6.27481 0,0 z M 558.93641,72.573262 c -2.93397,-11.229109 -38.11346,-26.254883 -14.98306,-9.456941 4.87309,3.306144 9.59155,7.019011 14.98306,9.456941 z m -236.7374,-13.96979 c 12.46035,-1.44592 31.18578,-14.866095 7.47269,-5.089797 -1.26746,0.547901 -19.23171,9.873648 -7.47269,5.089797 z M 528.76453,54.021948 C 473.47357,41.574455 416.11267,40.386478 359.8445,44.738807 c -15.75823,4.552565 -9.4168,6.326409 3.41637,2.239565 53.33381,-3.659966 107.43642,-3.443132 159.9217,7.907316 -1.25875,-1.032165 8.84189,2.3393 5.58196,-0.86374 z"
       id="path3009"
       inkscape:connector-curvature="0" />
  </g>
</svg>
